<?xml version="1.0" encoding="UTF-8"?>
<!DOCTYPE svg PUBLIC "-//W3C//DTD SVG 1.1//EN" "http://www.w3.org/Graphics/SVG/1.1/DTD/svg11.dtd">
<!-- Creator: CorelDRAW X7 -->
<svg xmlns="http://www.w3.org/2000/svg" xml:space="preserve" width="17px" height="17px" version="1.1" style="shape-rendering:geometricPrecision; text-rendering:geometricPrecision; image-rendering:optimizeQuality; fill-rule:evenodd; clip-rule:evenodd"
viewBox="0 0 41 41"
 xmlns:xlink="http://www.w3.org/1999/xlink">
 <defs>
  <style type="text/css">
   <![CDATA[
    .str0 {stroke:#92BA59;stroke-width:1.57646}
    .fil1 {fill:none}
    .fil0 {fill:#9BCD53}
    .fil2 {fill:white}
   ]]>
  </style>
 </defs>
 <g id="Capa_x0020_1">
  <metadata id="CorelCorpID_0Corel-Layer"/>
  <g id="_590678864">
   <circle class="fil0" cx="21" cy="21" r="21"/>
   <g>
    <path class="fil1 str0" d="M28 27l-2 4 -13 0 0 0 7 -9c1,-2 2,-3 2,-4 0,-1 -1,-2 -2,-3 0,0 -1,-1 -3,-1 -1,0 -2,0 -3,1l0 -5c2,0 3,0 5,0 2,0 4,0 6,2 1,1 2,3 2,5 0,2 -1,3 -2,5l-3 5 6 0z"/>
    <path id="1" class="fil2" d="M28 27l-2 4 -13 0 0 0 7 -9c1,-2 2,-3 2,-4 0,-1 -1,-2 -2,-3 0,0 -1,-1 -3,-1 -1,0 -2,0 -3,1l0 -5c2,0 3,0 5,0 2,0 4,0 6,2 1,1 2,3 2,5 0,2 -1,3 -2,5l-3 5 6 0z"/>
   </g>
  </g>
 </g>
</svg>
