<?xml version="1.0" encoding="UTF-8"?>
<!DOCTYPE svg PUBLIC "-//W3C//DTD SVG 1.1//EN" "http://www.w3.org/Graphics/SVG/1.1/DTD/svg11.dtd">
<!-- Creator: CorelDRAW X7 -->
<svg xmlns="http://www.w3.org/2000/svg" xml:space="preserve" width="240px" height="80px" version="1.1" style="shape-rendering:geometricPrecision; text-rendering:geometricPrecision; image-rendering:optimizeQuality; fill-rule:evenodd; clip-rule:evenodd"
viewBox="0 0 11836 3945"
 xmlns:xlink="http://www.w3.org/1999/xlink">
 <defs>
  <style type="text/css">
   <![CDATA[
    .fil0 {fill:none}
    .fil1 {fill:white}
   ]]>
  </style>
 </defs>
 <g id="Capa_x0020_1">
  <metadata id="CorelCorpID_0Corel-Layer"/>
  <rect class="fil0" width="11836" height="3945"/>
  <path class="fil1" d="M1921 2719l0 -918 -356 0 0 -329c148,-3 257,-30 327,-80 70,-50 114,-134 133,-251l358 0 0 1578 -462 0z"/>
  <path class="fil1" d="M9275 2762c0,-5 0,-11 -1,-19 0,-8 -1,-14 -1,-19 0,-109 34,-212 101,-309 67,-98 175,-199 324,-303 39,-29 94,-65 164,-109 166,-107 250,-200 250,-279 0,-61 -17,-108 -50,-143 -33,-34 -78,-52 -136,-52 -72,0 -126,23 -162,69 -35,46 -53,116 -53,209l0 27 -407 0c0,-6 0,-13 -1,-23 -1,-10 -1,-17 -1,-21 0,-189 57,-338 173,-445 115,-108 273,-161 475,-161 184,0 332,45 442,136 111,91 166,211 166,361 0,98 -21,179 -64,245 -43,66 -130,138 -262,218 -16,10 -41,25 -76,46 -126,74 -223,139 -290,195l688 0 0 377 -1279 0z"/>
  <polygon class="fil1" points="5124,2762 5666,1941 5172,1184 5742,1184 5953,1583 6184,1184 6741,1184 6230,1941 6759,2762 6186,2762 5947,2334 5707,2762 "/>
 </g>
</svg>
