<?xml version="1.0" encoding="UTF-8"?>
<!DOCTYPE svg PUBLIC "-//W3C//DTD SVG 1.1//EN" "http://www.w3.org/Graphics/SVG/1.1/DTD/svg11.dtd">
<!-- Creator: CorelDRAW X7 -->
<svg xmlns="http://www.w3.org/2000/svg" xml:space="preserve" width="240px" height="80px" version="1.1" style="shape-rendering:geometricPrecision; text-rendering:geometricPrecision; image-rendering:optimizeQuality; fill-rule:evenodd; clip-rule:evenodd"
viewBox="0 0 11836 3945"
 xmlns:xlink="http://www.w3.org/1999/xlink">
 <defs>
  <style type="text/css">
   <![CDATA[
    .fil0 {fill:none}
    .fil1 {fill:white}
   ]]>
  </style>
 </defs>
 <g id="Capa_x0020_1">
  <metadata id="CorelCorpID_0Corel-Layer"/>
  <rect class="fil0" width="11836" height="3945"/>
  <path class="fil1" d="M1041 2616l0 -778 -301 0 0 -279c125,-2 217,-25 276,-67 60,-43 97,-114 114,-213l302 0 0 1337 -391 0zm746 0l472 -713 -430 -658 496 0 183 347 200 -347 485 0 -445 658 460 713 -498 0 -207 -372 -209 372 -507 0z"/>
  <path class="fil1" d="M4632 2663c0,-4 0,-9 -1,-16 -1,-7 -1,-13 -1,-17 0,-95 29,-185 88,-270 59,-86 153,-174 284,-266 34,-25 82,-57 143,-95 146,-93 219,-175 219,-244 0,-53 -15,-95 -44,-125 -29,-30 -69,-45 -119,-45 -63,0 -110,20 -141,60 -31,40 -47,101 -47,183l0 23 -356 0c0,-5 0,-11 -1,-20 -1,-8 -1,-14 -1,-18 0,-166 50,-296 151,-390 101,-94 239,-141 416,-141 161,0 291,40 387,119 97,80 145,185 145,316 0,86 -19,157 -56,215 -37,57 -114,121 -229,190 -14,9 -36,23 -67,41 -110,64 -195,122 -253,171l601 0 0 329 -1118 0zm1193 0l474 -716 -431 -661 497 0 184 349 201 -349 487 0 -446 661 461 716 -500 0 -208 -373 -210 373 -509 0z"/>
  <path class="fil1" d="M9099 2663l0 -781 -303 0 0 -280c125,-2 218,-25 278,-68 59,-43 97,-114 113,-213l304 0 0 1342 -392 0zm814 0c0,-4 0,-9 -1,-16 -1,-7 -1,-13 -1,-17 0,-95 29,-185 88,-270 59,-86 153,-174 284,-266 34,-25 82,-57 143,-95 146,-93 219,-175 219,-244 0,-53 -15,-95 -44,-125 -29,-30 -68,-45 -119,-45 -63,0 -110,20 -141,60 -31,40 -47,101 -47,183l0 23 -356 0c0,-5 0,-11 -1,-20 -1,-8 -1,-14 -1,-18 0,-166 50,-296 151,-390 101,-94 239,-141 416,-141 161,0 291,40 387,119 97,80 145,185 145,316 0,86 -18,157 -56,215 -37,57 -114,121 -229,190 -14,9 -36,23 -67,41 -110,64 -195,122 -253,171l602 0 0 329 -1119 0z"/>
 </g>
</svg>
