<?xml version="1.0" encoding="UTF-8"?>
<!DOCTYPE svg PUBLIC "-//W3C//DTD SVG 1.1//EN" "http://www.w3.org/Graphics/SVG/1.1/DTD/svg11.dtd">
<!-- Creator: CorelDRAW X7 -->
<svg xmlns="http://www.w3.org/2000/svg" xml:space="preserve" width="18px" height="18px" version="1.1" style="shape-rendering:geometricPrecision; text-rendering:geometricPrecision; image-rendering:optimizeQuality; fill-rule:evenodd; clip-rule:evenodd"
viewBox="0 0 33 33"
 xmlns:xlink="http://www.w3.org/1999/xlink">
 <defs>
  <style type="text/css">
   <![CDATA[
    .str0 {stroke:#D2D8D8;stroke-width:3.61389}
    .fil0 {fill:none}
   ]]>
  </style>
 </defs>
 <g id="Capa_x0020_1">
  <metadata id="CorelCorpID_0Corel-Layer"/>
  <path class="fil0 str0" d="M8 19c0,0 0,0 -1,0l-2 2c-2,1 -3,2 -3,3 0,0 0,0 0,0l0 1c0,0 0,1 0,1l4 4c0,1 2,1 2,1l1 0c0,0 1,0 1,0 0,-1 1,-1 1,-1 2,0 4,-1 6,-2 4,-3 8,-7 11,-11 1,-2 2,-5 3,-7 0,0 0,-1 0,-1l0 -1c0,-1 0,-2 -1,-2 -1,-1 -1,-1 -2,-2 0,0 -1,-1 -1,-1 -1,-1 -1,-1 -2,-1l0 0c-1,0 -1,0 -2,0 0,1 -1,1 -1,2 -1,1 -1,1 -2,2 -1,1 -2,2 -1,4 0,0 0,0 1,1 0,0 1,0 1,1 0,1 -3,4 -4,5 -1,1 -4,4 -5,4 -1,-1 -1,-2 -3,-2 0,0 0,0 0,0 -1,0 -1,0 -1,0z"/>
 </g>
</svg>
