<?xml version="1.0" encoding="UTF-8"?>
<!DOCTYPE svg PUBLIC "-//W3C//DTD SVG 1.1//EN" "http://www.w3.org/Graphics/SVG/1.1/DTD/svg11.dtd">
<!-- Creator: CorelDRAW X7 -->
<svg xmlns="http://www.w3.org/2000/svg" xml:space="preserve" width="240px" height="80px" version="1.1" style="shape-rendering:geometricPrecision; text-rendering:geometricPrecision; image-rendering:optimizeQuality; fill-rule:evenodd; clip-rule:evenodd"
viewBox="0 0 5372 1791"
 xmlns:xlink="http://www.w3.org/1999/xlink">
 <defs>
  <style type="text/css">
   <![CDATA[
    .fil0 {fill:none}
    .fil1 {fill:white}
   ]]>
  </style>
 </defs>
 <g id="Capa_x0020_1">
  <metadata id="CorelCorpID_0Corel-Layer"/>
  <rect class="fil0" width="5372" height="1791"/>
  <path class="fil1" d="M791 560c-83,0 -155,25 -229,44 -39,9 -81,7 -72,53 5,28 19,80 29,101 49,10 73,-20 117,-10 19,89 -16,416 11,467 15,20 74,12 117,12 424,0 385,38 385,-115l-1 -307c0,-111 42,-32 122,-46 16,-35 54,-119 9,-142 -2,-1 -13,-4 -16,-5 -82,-21 -197,-52 -276,-52 -13,41 -45,76 -99,73 -71,-5 -64,-52 -97,-73zm49 334c-16,-7 -28,-17 -36,-29 -7,-13 -11,-26 -11,-41 0,-24 9,-45 26,-61 17,-17 42,-25 74,-25 32,0 56,8 74,25 17,16 26,37 26,61 0,16 -4,30 -12,42 -8,12 -19,21 -34,28 19,7 33,18 42,32 10,15 15,31 15,50 0,31 -10,56 -30,75 -19,19 -45,29 -78,29 -30,0 -55,-8 -76,-24 -23,-19 -35,-45 -35,-78 0,-18 4,-34 13,-49 9,-16 23,-27 42,-35zm14 -65c0,13 3,23 10,30 8,7 17,11 29,11 12,0 22,-4 29,-11 7,-7 11,-17 11,-30 0,-12 -4,-22 -11,-29 -7,-7 -16,-11 -28,-11 -12,0 -22,4 -29,11 -8,7 -11,17 -11,29zm-6 143c0,18 4,32 13,42 9,10 20,15 34,15 13,0 24,-5 33,-15 8,-9 12,-23 12,-41 0,-16 -4,-28 -13,-38 -8,-10 -20,-14 -33,-14 -16,0 -27,5 -35,16 -8,11 -11,23 -11,35z"/>
  <path class="fil1" d="M2582 560c-83,0 -155,25 -229,44 -39,9 -81,7 -73,53 5,28 20,80 29,101 50,10 74,-20 118,-10 19,89 -16,416 11,467 15,20 74,12 117,12 424,0 384,38 384,-115l0 -307c-1,-111 42,-32 122,-46 15,-35 54,-119 9,-142 -2,-1 -13,-4 -16,-5 -82,-21 -197,-52 -277,-52 -12,41 -44,76 -99,73 -70,-5 -63,-52 -96,-73zm158 514l-64 0 0 -242c-23,22 -51,38 -83,49l0 -58c17,-6 35,-16 55,-31 19,-16 33,-33 40,-54l52 0 0 336z"/>
  <path class="fil1" d="M4373 560c-83,0 -155,25 -229,44 -39,9 -81,7 -73,53 5,28 20,80 29,101 50,10 74,-20 118,-10 19,89 -16,416 11,467 15,20 74,12 117,12 424,0 384,38 384,-115l0 -307c-1,-111 42,-32 122,-46 15,-35 54,-119 9,-142 -2,-1 -14,-4 -16,-5 -82,-21 -197,-52 -277,-52 -12,41 -44,76 -99,73 -70,-5 -63,-52 -96,-73zm-8 426l62 -8c2,16 7,28 16,36 9,9 19,13 31,13 13,0 24,-5 33,-15 9,-10 14,-24 14,-41 0,-16 -4,-29 -13,-38 -9,-9 -19,-14 -32,-14 -8,0 -18,1 -29,5l7 -52c17,0 31,-4 40,-12 9,-8 13,-18 13,-32 0,-11 -3,-20 -10,-27 -6,-6 -15,-10 -26,-10 -11,0 -21,4 -28,12 -8,7 -13,19 -15,33l-58 -10c4,-20 10,-36 18,-49 8,-12 20,-21 35,-28 15,-7 31,-11 50,-11 31,0 56,10 75,30 16,17 24,36 24,56 0,30 -16,53 -49,71 20,4 35,13 46,27 12,15 18,32 18,52 0,29 -11,54 -33,75 -21,21 -48,31 -79,31 -31,0 -56,-9 -75,-26 -20,-17 -32,-40 -35,-68z"/>
 </g>
</svg>
